<svg xmlns="http://www.w3.org/2000/svg" viewBox="0 0 512.01 250.72" width="512.01" height="250.72" role="img" aria-label="build-ecosystem lockup"><title>build-ecosystem lockup</title><defs></defs><g transform="translate(176.01 0) scale(0.31)"><desc>A ring drawn around a bright core, with the graph element inside the ring.</desc><defs><radialGradient id="mk-build-ecosystem-fd0-halo" r="50%"><stop offset="0" stop-color="#ffab52" stop-opacity="0.34"/><stop offset="0.35" stop-color="#ffab52" stop-opacity="0.1"/><stop offset="1" stop-color="#ffab52" stop-opacity="0"/></radialGradient><radialGradient id="mk-build-ecosystem-fd0-core"><stop offset="0" stop-color="#fff7e8"/><stop offset="0.45" stop-color="#fff7e8" stop-opacity="0.96"/><stop offset="0.72" stop-color="#ffd592" stop-opacity="0.55"/><stop offset="1" stop-color="#ffab52" stop-opacity="0"/></radialGradient></defs><circle cx="256" cy="256" r="196" fill="none" stroke="#e6e1d6" stroke-width="18" opacity="1"/><line x1="220.54" y1="370.64" x2="256" y2="256" stroke="#e6e1d6" stroke-width="9.9" stroke-opacity="1" stroke-linecap="round"/><line x1="141.36" y1="220.54" x2="256" y2="256" stroke="#e6e1d6" stroke-width="9.9" stroke-opacity="1" stroke-linecap="round"/><line x1="291.46" y1="141.36" x2="256" y2="256" stroke="#e6e1d6" stroke-width="9.9" stroke-opacity="1" stroke-linecap="round"/><line x1="370.64" y1="291.46" x2="256" y2="256" stroke="#e6e1d6" stroke-width="9.9" stroke-opacity="1" stroke-linecap="round"/><polyline points="220.54,370.64 141.36,220.54 291.46,141.36 370.64,291.46 220.54,370.64" fill="none" stroke="#e6e1d6" stroke-width="7.2" stroke-opacity="1" stroke-linecap="round" stroke-linejoin="round"/><circle cx="220.54" cy="370.64" r="20" fill="none" stroke="#e6e1d6" stroke-width="9.9" opacity="1"/><circle cx="141.36" cy="220.54" r="20" fill="none" stroke="#e6e1d6" stroke-width="9.9" opacity="1"/><circle cx="291.46" cy="141.36" r="20" fill="none" stroke="#e6e1d6" stroke-width="9.9" opacity="1"/><circle cx="370.64" cy="291.46" r="20" fill="none" stroke="#e6e1d6" stroke-width="9.9" opacity="1"/><circle cx="256" cy="256" r="95.2" fill="url(#mk-build-ecosystem-fd0-halo)"/><circle cx="256" cy="256" r="38.08" fill="url(#mk-build-ecosystem-fd0-core)"/><polyline points="349.07,67.6 351.42,68.78 353.75,69.99 356.07,71.22 358.37,72.49 360.66,73.78 362.93,75.1 365.18,76.46 367.42,77.83 369.63,79.24 371.83,80.67 374.02,82.14 376.18,83.62 378.33,85.14 380.45,86.68 382.56,88.25 384.65,89.85 386.71,91.47 388.76,93.11 390.79,94.79 392.79,96.48 394.77,98.21 396.73,99.95 398.67,101.72 400.59,103.52 402.49,105.34 404.36,107.18 406.21,109.05 408.03,110.94 409.83,112.85 411.61,114.78 413.36,116.74 415.09,118.72 416.8,120.72 418.47,122.74 420.13,124.78 421.75,126.84 423.36,128.92 424.93,131.02 426.48,133.14 428,135.29" fill="none" stroke="#ff3d6e" stroke-width="1.7" stroke-opacity="0.9" stroke-linecap="round" stroke-linejoin="round"/><polyline points="349.94,65.85 352.31,67.04 354.66,68.26 357,69.5 359.32,70.78 361.63,72.09 363.92,73.42 366.2,74.78 368.45,76.18 370.69,77.6 372.91,79.04 375.12,80.52 377.3,82.02 379.46,83.55 381.61,85.11 383.74,86.69 385.84,88.3 387.93,89.94 389.99,91.6 392.04,93.29 394.06,95 396.06,96.74 398.04,98.5 400,100.29 401.94,102.1 403.85,103.94 405.74,105.8 407.6,107.68 409.45,109.59 411.26,111.52 413.06,113.47 414.83,115.44 416.57,117.44 418.29,119.46 419.99,121.5 421.65,123.56 423.3,125.64 424.91,127.74 426.5,129.86 428.07,132 429.6,134.16" fill="none" stroke="#ff8f3a" stroke-width="1.7" stroke-opacity="0.9" stroke-linecap="round" stroke-linejoin="round"/><polyline points="350.8,64.1 353.2,65.3 355.57,66.53 357.93,67.78 360.28,69.07 362.61,70.39 364.92,71.74 367.21,73.11 369.49,74.52 371.75,75.95 373.99,77.41 376.21,78.9 378.42,80.42 380.6,81.96 382.77,83.53 384.91,85.13 387.04,86.76 389.15,88.41 391.23,90.08 393.29,91.79 395.33,93.52 397.36,95.27 399.35,97.05 401.33,98.85 403.28,100.68 405.21,102.54 407.12,104.41 409,106.31 410.86,108.24 412.7,110.19 414.51,112.16 416.29,114.15 418.05,116.16 419.79,118.2 421.5,120.26 423.18,122.34 424.84,124.44 426.47,126.56 428.07,128.7 429.65,130.86 431.2,133.04" fill="none" stroke="#ffe04a" stroke-width="1.7" stroke-opacity="0.9" stroke-linecap="round" stroke-linejoin="round"/><polyline points="351.67,62.34 354.08,63.55 356.48,64.79 358.86,66.07 361.23,67.37 363.58,68.7 365.91,70.06 368.23,71.44 370.53,72.86 372.81,74.31 375.07,75.78 377.31,77.28 379.54,78.81 381.74,80.37 383.93,81.96 386.09,83.57 388.24,85.21 390.36,86.88 392.46,88.57 394.55,90.29 396.61,92.03 398.65,93.8 400.66,95.6 402.66,97.42 404.63,99.26 406.57,101.13 408.5,103.03 410.4,104.95 412.27,106.89 414.13,108.85 415.95,110.84 417.76,112.85 419.53,114.89 421.28,116.94 423.01,119.02 424.71,121.12 426.38,123.23 428.03,125.37 429.65,127.54 431.24,129.72 432.8,131.92" fill="none" stroke="#5dff8f" stroke-width="1.7" stroke-opacity="0.9" stroke-linecap="round" stroke-linejoin="round"/><polyline points="352.54,60.59 354.97,61.81 357.39,63.06 359.79,64.35 362.18,65.66 364.55,67 366.91,68.37 369.24,69.77 371.56,71.2 373.86,72.66 376.15,74.15 378.41,75.67 380.65,77.21 382.88,78.78 385.08,80.38 387.27,82.01 389.43,83.66 391.58,85.34 393.7,87.05 395.8,88.79 397.88,90.55 399.94,92.33 401.97,94.15 403.98,95.98 405.97,97.85 407.94,99.73 409.88,101.64 411.8,103.58 413.69,105.54 415.56,107.52 417.4,109.53 419.22,111.56 421.01,113.61 422.78,115.68 424.52,117.78 426.23,119.89 427.92,122.03 429.58,124.19 431.22,126.37 432.82,128.57 434.4,130.79" fill="none" stroke="#3fd8ff" stroke-width="1.7" stroke-opacity="0.9" stroke-linecap="round" stroke-linejoin="round"/><polyline points="353.4,58.84 355.86,60.07 358.3,61.33 360.73,62.63 363.13,63.95 365.53,65.31 367.9,66.69 370.26,68.1 372.6,69.55 374.92,71.02 377.22,72.52 379.51,74.05 381.77,75.61 384.02,77.19 386.24,78.81 388.45,80.45 390.63,82.12 392.79,83.81 394.94,85.54 397.06,87.29 399.15,89.06 401.23,90.87 403.28,92.69 405.31,94.55 407.32,96.43 409.3,98.33 411.26,100.26 413.19,102.21 415.1,104.19 416.99,106.19 418.85,108.21 420.68,110.26 422.49,112.33 424.27,114.42 426.03,116.54 427.76,118.67 429.46,120.83 431.14,123.01 432.79,125.21 434.41,127.43 436,129.67" fill="none" stroke="#5b6bff" stroke-width="1.7" stroke-opacity="0.9" stroke-linecap="round" stroke-linejoin="round"/><polyline points="354.27,57.08 356.75,58.33 359.21,59.6 361.66,60.91 364.09,62.24 366.5,63.61 368.9,65.01 371.27,66.43 373.64,67.89 375.98,69.37 378.3,70.89 380.61,72.43 382.89,74 385.15,75.6 387.4,77.23 389.62,78.89 391.83,80.57 394.01,82.28 396.17,84.02 398.31,85.79 400.43,87.58 402.52,89.4 404.59,91.24 406.64,93.11 408.66,95.01 410.66,96.93 412.64,98.88 414.59,100.85 416.52,102.84 418.42,104.86 420.3,106.9 422.15,108.97 423.97,111.05 425.77,113.16 427.54,115.3 429.29,117.45 431.01,119.63 432.7,121.83 434.36,124.05 436,126.29 437.6,128.55" fill="none" stroke="#c35cff" stroke-width="1.7" stroke-opacity="0.9" stroke-linecap="round" stroke-linejoin="round"/></g><path fill="#e6e1d6" d="M41.64 231.16Q38.95 231.16 36.56 230.09Q34.18 229.01 32.43 226.76Q30.68 224.51 29.81 220.88L31.76 221.35V230.56H24.37V183.72H31.76V206.7H30.08Q30.75 203.55 32.4 201.36Q34.04 199.18 36.43 198Q38.82 196.83 41.64 196.83Q45.67 196.83 48.93 198.88Q52.19 200.92 54.14 204.76Q56.09 208.59 56.09 213.96Q56.09 218.87 54.31 222.76Q52.52 226.66 49.3 228.91Q46.07 231.16 41.64 231.16ZM39.82 224.31Q42.44 224.31 44.43 223.03Q46.41 221.76 47.48 219.4Q48.56 217.05 48.56 213.96Q48.56 210.87 47.48 208.52Q46.41 206.17 44.43 204.89Q42.44 203.61 39.82 203.61Q37.2 203.61 35.22 204.92Q33.24 206.23 32.16 208.55Q31.09 210.87 31.09 213.96Q31.09 217.05 32.16 219.4Q33.24 221.76 35.22 223.03Q37.2 224.31 39.82 224.31ZM73.09 231.16Q69.19 231.16 66.54 229.62Q63.88 228.07 62.54 225.18Q61.19 222.29 61.19 218.2V197.43H68.65V216.18Q68.65 218.8 69.29 220.72Q69.93 222.63 71.37 223.64Q72.82 224.65 75.31 224.65Q78.2 224.65 79.84 223.13Q81.49 221.62 82.19 218.7Q82.9 215.78 82.9 211.68V197.43H90.36V230.56H82.9V223.44L84.18 223.91Q82.63 227.67 79.71 229.42Q76.78 231.16 73.09 231.16ZM97.41 230.56V197.43H104.87V230.56ZM97.08 191.99V183.72H105.21V191.99ZM119.19 231.16Q115.96 231.16 113.81 229.18Q111.66 227.2 111.66 222.83V183.72H119.12V221.35Q119.12 222.9 119.83 223.6Q120.53 224.31 121.67 224.31Q122.28 224.31 122.92 224.18Q123.56 224.04 124.23 223.84V230.16Q122.95 230.69 121.61 230.93Q120.26 231.16 119.19 231.16ZM141.43 231.16Q137 231.16 133.74 228.91Q130.48 226.66 128.73 222.76Q126.98 218.87 126.98 213.96Q126.98 208.59 128.9 204.76Q130.81 200.92 134.11 198.88Q137.4 196.83 141.43 196.83Q144.25 196.83 146.64 197.97Q149.02 199.11 150.67 201.29Q152.32 203.48 152.99 206.64L151.24 206.7V183.72H158.7V230.56H151.24V221.35L153.26 220.88Q152.38 224.51 150.6 226.76Q148.82 229.01 146.47 230.09Q144.12 231.16 141.43 231.16ZM143.24 224.31Q145.87 224.31 147.81 223.03Q149.76 221.76 150.84 219.4Q151.91 217.05 151.91 213.96Q151.91 210.87 150.84 208.55Q149.76 206.23 147.81 204.92Q145.87 203.61 143.24 203.61Q140.62 203.61 138.64 204.89Q136.66 206.17 135.55 208.52Q134.44 210.87 134.44 213.96Q134.44 217.05 135.55 219.4Q136.66 221.76 138.64 223.03Q140.62 224.31 143.24 224.31ZM164.08 213.29V207.78H180.74V213.29ZM200.57 231.16Q196.4 231.16 193.34 229.82Q190.28 228.48 188.34 226.06Q186.39 223.64 185.45 220.58Q184.51 217.52 184.51 214.23Q184.51 210.94 185.41 207.81Q186.32 204.69 188.2 202.2Q190.08 199.72 193.04 198.27Q196 196.83 200.03 196.83Q203.86 196.83 206.72 198.14Q209.57 199.45 211.45 201.76Q213.33 204.08 214.24 207.04Q215.15 210 215.15 213.36Q215.15 213.83 215.12 214.7Q215.08 215.57 214.95 216.45H191.96Q192.23 220.41 194.65 222.5Q197.07 224.58 200.84 224.58Q203.59 224.58 205.88 223.71Q208.16 222.83 210.04 220.95L214.14 225.92Q212.06 227.8 209.97 228.95Q207.89 230.09 205.64 230.63Q203.39 231.16 200.57 231.16ZM207.82 212.68Q207.96 212.15 207.99 211.61Q208.03 211.07 208.03 210.53Q208.03 209.06 207.52 207.71Q207.02 206.37 206.01 205.33Q205 204.28 203.52 203.65Q202.04 203.01 200.16 203.01Q197.54 203.01 195.76 204.15Q193.98 205.29 193.01 207.07Q192.03 208.85 191.83 210.94H210.24ZM235.04 231.16Q231.14 231.16 228.15 229.79Q225.16 228.41 223.18 225.96Q221.2 223.5 220.19 220.41Q219.18 217.32 219.18 213.96Q219.18 210.6 220.19 207.51Q221.2 204.42 223.18 202Q225.16 199.58 228.15 198.2Q231.14 196.83 235.04 196.83Q239.95 196.83 243.61 199.18Q247.27 201.53 249.02 206.44L242.43 208.99Q241.63 206.44 239.81 204.86Q238 203.28 235.04 203.28Q232.08 203.28 230.24 204.82Q228.39 206.37 227.51 208.79Q226.64 211.21 226.64 213.96Q226.64 216.72 227.51 219.17Q228.39 221.62 230.24 223.13Q232.08 224.65 235.04 224.65Q238 224.65 239.81 223.1Q241.63 221.56 242.43 219L249.02 221.56Q247.27 226.39 243.61 228.78Q239.95 231.16 235.04 231.16ZM268.98 231.16Q264.27 231.16 260.51 228.95Q256.75 226.73 254.63 222.83Q252.51 218.93 252.51 213.96Q252.51 208.99 254.63 205.09Q256.75 201.19 260.48 199.01Q264.2 196.83 268.98 196.83Q273.81 196.83 277.48 199.01Q281.14 201.19 283.29 205.09Q285.44 208.99 285.44 213.96Q285.44 218.93 283.32 222.83Q281.21 226.73 277.48 228.95Q273.75 231.16 268.98 231.16ZM269.04 224.58Q271.8 224.58 273.81 223.3Q275.83 222.03 276.91 219.61Q277.98 217.19 277.98 213.96Q277.98 210.67 276.91 208.28Q275.83 205.9 273.81 204.62Q271.8 203.34 269.04 203.34Q266.15 203.34 264.14 204.65Q262.12 205.96 261.05 208.32Q259.97 210.67 259.97 213.96Q259.97 217.19 261.05 219.61Q262.12 222.03 264.14 223.3Q266.15 224.58 269.04 224.58ZM302.24 231.16Q298.68 231.16 295.92 230.12Q293.17 229.08 291.29 227.47Q289.4 225.86 288.2 224.24L293.3 219.81Q294.58 221.89 296.83 223.5Q299.08 225.12 302.31 225.12Q305 225.12 306.57 223.97Q308.15 222.83 308.15 221.15Q308.15 219.67 307.15 218.83Q306.14 217.99 304.52 217.39Q302.91 216.78 300.96 216.31Q299.08 215.84 297.13 215.14Q295.18 214.43 293.54 213.36Q291.89 212.28 290.88 210.6Q289.88 208.92 289.88 206.44Q289.88 202.07 293.24 199.45Q296.6 196.83 302.04 196.83Q305.94 196.83 309.16 198.37Q312.39 199.92 314.2 203.01L309.56 206.57Q308.22 204.55 306.2 203.55Q304.19 202.54 301.84 202.54Q299.69 202.54 298.24 203.41Q296.8 204.28 296.8 205.7Q296.8 206.77 297.47 207.44Q298.14 208.12 299.55 208.65Q300.96 209.19 303.11 209.73Q305.13 210.2 307.28 210.87Q309.43 211.54 311.28 212.65Q313.13 213.76 314.3 215.61Q315.48 217.46 315.48 220.35Q315.48 223.57 313.83 226.02Q312.19 228.48 309.2 229.82Q306.2 231.16 302.24 231.16ZM323.14 244.2 329.72 228.34 317.09 197.43H325.29L333.69 220.88L342.22 197.43H350.29L331.2 244.2ZM364.87 231.16Q361.31 231.16 358.55 230.12Q355.8 229.08 353.92 227.47Q352.04 225.86 350.83 224.24L355.93 219.81Q357.21 221.89 359.46 223.5Q361.71 225.12 364.94 225.12Q367.63 225.12 369.2 223.97Q370.78 222.83 370.78 221.15Q370.78 219.67 369.78 218.83Q368.77 217.99 367.16 217.39Q365.54 216.78 363.59 216.31Q361.71 215.84 359.76 215.14Q357.81 214.43 356.17 213.36Q354.52 212.28 353.51 210.6Q352.51 208.92 352.51 206.44Q352.51 202.07 355.87 199.45Q359.23 196.83 364.67 196.83Q368.57 196.83 371.79 198.37Q375.02 199.92 376.83 203.01L372.2 206.57Q370.85 204.55 368.84 203.55Q366.82 202.54 364.47 202.54Q362.32 202.54 360.87 203.41Q359.43 204.28 359.43 205.7Q359.43 206.77 360.1 207.44Q360.77 208.12 362.18 208.65Q363.59 209.19 365.74 209.73Q367.76 210.2 369.91 210.87Q372.06 211.54 373.91 212.65Q375.76 213.76 376.93 215.61Q378.11 217.46 378.11 220.35Q378.11 223.57 376.46 226.02Q374.82 228.48 371.83 229.82Q368.84 231.16 364.87 231.16ZM395.58 231.16Q393.09 231.16 390.91 230.19Q388.73 229.22 387.45 227.03Q386.17 224.85 386.17 221.29V189.37L393.7 185.2V219.2Q393.7 222.03 394.54 223.54Q395.38 225.05 397.6 225.05Q398.27 225.05 399.18 224.88Q400.08 224.71 401.09 224.44V230.22Q399.75 230.69 398.37 230.93Q396.99 231.16 395.58 231.16ZM379.86 203.21V197.43H401.09V203.21ZM419.91 231.16Q415.74 231.16 412.68 229.82Q409.63 228.48 407.68 226.06Q405.73 223.64 404.79 220.58Q403.85 217.52 403.85 214.23Q403.85 210.94 404.75 207.81Q405.66 204.69 407.54 202.2Q409.42 199.72 412.38 198.27Q415.34 196.83 419.37 196.83Q423.2 196.83 426.06 198.14Q428.91 199.45 430.79 201.76Q432.68 204.08 433.58 207.04Q434.49 210 434.49 213.36Q434.49 213.83 434.46 214.7Q434.42 215.57 434.29 216.45H411.31Q411.57 220.41 413.99 222.5Q416.41 224.58 420.18 224.58Q422.93 224.58 425.22 223.71Q427.5 222.83 429.38 220.95L433.48 225.92Q431.4 227.8 429.32 228.95Q427.23 230.09 424.98 230.63Q422.73 231.16 419.91 231.16ZM427.16 212.68Q427.3 212.15 427.33 211.61Q427.37 211.07 427.37 210.53Q427.37 209.06 426.86 207.71Q426.36 206.37 425.35 205.33Q424.34 204.28 422.86 203.65Q421.39 203.01 419.5 203.01Q416.88 203.01 415.1 204.15Q413.32 205.29 412.35 207.07Q411.37 208.85 411.17 210.94H429.58ZM440.07 230.56V197.43H447.53V206.03L445.91 206.97Q446.52 204.08 447.63 202.13Q448.74 200.19 450.21 199.01Q451.69 197.83 453.41 197.33Q455.12 196.83 456.87 196.83Q459.56 196.83 461.91 197.87Q464.26 198.91 465.91 201.23Q467.55 203.55 468.16 207.51L463.79 208.72Q464.8 204.42 466.61 201.83Q468.43 199.24 470.88 198.04Q473.33 196.83 476.22 196.83Q480.45 196.83 483.04 198.67Q485.63 200.52 486.84 203.51Q488.05 206.5 488.05 209.93V230.56H480.59V211.74Q480.59 208.99 479.95 207.11Q479.31 205.23 477.97 204.25Q476.62 203.28 474.54 203.28Q472.32 203.28 470.84 204.39Q469.37 205.49 468.59 207.78Q467.82 210.06 467.82 213.42V230.56H460.36V211.41Q460.36 207.31 458.82 205.29Q457.27 203.28 454.45 203.28Q452.23 203.28 450.68 204.42Q449.14 205.56 448.33 207.81Q447.53 210.06 447.53 213.42V230.56Z"/></svg>
